<?xml version="1.0" encoding="utf-8"?>
<!-- Generator: Adobe Illustrator 16.0.0, SVG Export Plug-In . SVG Version: 6.00 Build 0)  -->
<!DOCTYPE svg PUBLIC "-//W3C//DTD SVG 1.1//EN" "http://www.w3.org/Graphics/SVG/1.1/DTD/svg11.dtd">
<svg version="1.1" id="Layer_1" xmlns="http://www.w3.org/2000/svg" xmlns:xlink="http://www.w3.org/1999/xlink" x="0px" y="0px"
	 width="137px" height="172px" viewBox="0 0 137 172" enable-background="new 0 0 137 172" xml:space="preserve">
<path fill="#FFFFFF" d="M136.401,84.705l0.021-0.054L85.802,61.022l49.429-20.12c0.586-0.238,0.995-0.777,1.068-1.406
	c0.072-0.628-0.203-1.246-0.719-1.611L82.11-0.028c-0.479-0.341-1.094-0.414-1.647-0.194L11.408,27.532
	c-0.659,0.266-1.085,0.896-1.085,1.607v60.029c0,0.145,0.02,0.293,0.061,0.45l0.041,0.108c0.036,0.107,0.08,0.211,0.137,0.31
	c0.025,0.044,0.054,0.084,0.096,0.14c0.058,0.08,0.12,0.156,0.191,0.225c0.043,0.043,0.087,0.081,0.131,0.117l0.107,0.088
	c0.053,0.035,0.103,0.057,0.111,0.057l0.001-0.001l0.086,0.06l47.621,21.985L1.126,134.282c-0.639,0.238-1.08,0.833-1.123,1.512
	c-0.044,0.681,0.318,1.325,0.922,1.645l65.928,34.709c0.248,0.131,0.527,0.199,0.807,0.199c0.203,0,0.4-0.034,0.591-0.104
	l67.63-24.551c0.682-0.248,1.141-0.902,1.141-1.629V86.034C137.022,85.518,136.792,85.032,136.401,84.705z M82.862,4.752L131,38.884
	l-47.81,19.46L82.862,4.752z M133.557,88.53v54.826l-65.653-30.311L133.557,88.53z M63.335,114.751l67.407,31.12l-62.953,22.853
	l-61.825-32.55L63.335,114.751z M16.405,89.269l65.021-26.466l49.387,23.053L63.475,111L16.405,89.269z M13.787,86.593V30.31
	L79.392,3.942l0.342,55.809L13.787,86.593z"/>
</svg>
